# xmcd CD database file
#
# Track frame offsets:
#	150
#	18874
#	31225
#	49784
#	69018
#	84312
#	100190
#	124403
#	140815
#	152748
#	175724
#	200166
#
# Disc length: 2916 seconds
#
# Revision: 0
# Processed by: cddbd v1.5.1PL2 Copyright (c) Steve Scherf et al.
# Submitted via: CDex 1.51
#
DISCID=9a0b620c
DTITLE=The Boogaloo Kings - In My Car
DYEAR=1900
DGENRE=Blues
TTITLE0=In my car
TTITLE1=Get up of your ass and dance
TTITLE2=Oh Girl
TTITLE3=Back in town
TTITLE4=A day off in Berlin
TTITLE5=Going home
TTITLE6=Pill poppin' son of a bitch
TTITLE7=Buddy buddy friends
TTITLE8=Ain't that lovin' you
TTITLE9=Tribute to Maisha Grant
TTITLE10=Kaspar Hauser
TTITLE11=Don't treat me like that
EXTD=
EXTT0=
EXTT1=
EXTT2=
EXTT3=
EXTT4=
EXTT5=
EXTT6=
EXTT7=
EXTT8=
EXTT9=
EXTT10=
EXTT11=
PLAYORDER=
